<?xml version="1.0" encoding="UTF-8" standalone="no"?>
<svg
   xmlns:dc="http://purl.org/dc/elements/1.1/"
   xmlns:cc="http://creativecommons.org/ns#"
   xmlns:rdf="http://www.w3.org/1999/02/22-rdf-syntax-ns#"
   xmlns:svg="http://www.w3.org/2000/svg"
   xmlns="http://www.w3.org/2000/svg"
   version="1.1"
   id="svg2"
   viewBox="0 0 744.09448819 1052.3622047"
   height="297mm"
   width="210mm">
  <defs
     id="defs4">
    <marker
       id="DistanceX"
       orient="auto"
       refX="0.0"
       refY="0.0"
       style="overflow:visible">
      <path
         d="M 3,-3 L -3,3 M 0,-5 L  0,5"
         style="stroke:#000000; stroke-width:0.5"
         id="path3471" />
    </marker>
    <pattern
       height="8"
       id="Hatch"
       patternUnits="userSpaceOnUse"
       width="8"
       x="0"
       y="0">
      <path
         d="M8 4 l-4,4"
         linecap="square"
         stroke="#000000"
         stroke-width="0.25"
         id="path3474" />
      <path
         d="M6 2 l-4,4"
         linecap="square"
         stroke="#000000"
         stroke-width="0.25"
         id="path3476" />
      <path
         d="M4 0 l-4,4"
         linecap="square"
         stroke="#000000"
         stroke-width="0.25"
         id="path3478" />
    </pattern>
    <symbol
       id="*MODEL_SPACE" />
    <symbol
       id="*PAPER_SPACE" />
  </defs>
  <metadata
     id="metadata7">
    <rdf:RDF>
      <cc:Work
         rdf:about="">
        <dc:format>image/svg+xml</dc:format>
        <dc:type
           rdf:resource="http://purl.org/dc/dcmitype/StillImage" />
        <dc:title></dc:title>
      </cc:Work>
    </rdf:RDF>
  </metadata>
  <g
     style="opacity:1"
     id="layer1">
    <g
       style=""
       transform="matrix(0.08952643,0,0,0.08952643,-250.68463,881.83814)"
       id="g3482">
      <path
         d="m 5730.1464,-4247.8809 c 481.2514,-37.0194 2457.7103,-54.8334 2796.6376,-30.5394"
         style="fill:none;stroke:#000000"
         id="path3484" />
      <path
         d="m 8526.784,-4278.4203 c -5.7314,246.7956 -15.334,643.1652 -15.334,643.1652"
         style="fill:none;stroke:#000000"
         id="path3486" />
      <path
         d="m 8526.784,-5524.7374 c 0,0 31.7574,478.4918 24.6795,789.7456"
         style="fill:none;stroke:#000000"
         id="path3488" />
      <path
         d="m 8551.4635,-4734.9918 c -530.6102,-24.6796 -2136.1138,-41.3448 -3146.6423,74.0386"
         style="fill:none;stroke:#000000"
         id="path3490" />
      <path
         d="m 5404.8212,-4660.9532 c -1003.0995,114.5353 -1907.1607,482.0562 -2275.63,831.8764"
         style="fill:none;stroke:#000000"
         id="path3492" />
      <path
         d="m 3129.1912,-3829.0768 c -29.6623,252.6551 -9.8694,546.5435 -23.8026,786.7511"
         style="fill:none;stroke:#000000"
         id="path3494" />
      <path
         d="m 3105.3886,-3042.3257 c 1056.0997,624.3165 2304.0488,860.2668 3880.4205,1020.5872"
         style="fill:none;stroke:#000000"
         id="path3496" />
      <path
         d="m 6985.8091,-2021.7385 c 862.5047,87.7187 2448.0014,27.0536 2890.8649,-189.9513"
         style="fill:none;stroke:#000000"
         id="path3498" />
      <path
         d="m 9876.674,-2211.6898 c 412.385,-202.0702 753.69,-319.0425 953.905,-622.1642"
         style="fill:none;stroke:#000000"
         id="path3500" />
      <path
         d="m 10830.579,-2833.854 c -4.835,-80.6204 17.323,-512.6674 -12.211,-836.4316"
         style="fill:none;stroke:#000000"
         id="path3502" />
      <path
         d="m 10818.368,-3670.2856 c -234.584,-382.6613 -1560.7781,-597.1635 -1560.7781,-597.1635"
         style="fill:none;stroke:#000000"
         id="path3504" />
      <path
         d="m 8513.0756,-4003.331 c -394.8726,-49.3591 -2381.5834,-128.8465 -2787.4205,-238.0699"
         style="fill:none;stroke:#000000"
         id="path3506" />
      <path
         d="m 5725.6551,-4241.4009 c -498.0821,24.6795 -1460.5404,179.9631 -2307.5376,765.066"
         style="fill:none;stroke:#000000"
         id="path3508" />
      <path
         d="m 3418.1175,-3476.3349 c 737.928,411.8323 3203.371,705.6366 3630.7814,772.4228"
         style="fill:none;stroke:#000000"
         id="path3510" />
      <path
         d="m 7048.8989,-2703.9121 c 772.1878,120.6607 2299.366,259.2638 3317.2601,-290.5515"
         style="fill:none;stroke:#000000"
         id="path3512" />
      <path
         d="m 10366.159,-2994.4636 c 197.693,-767.9537 -1487.2531,-955.1454 -1487.2531,-955.1454"
         style="fill:none;stroke:#000000"
         id="path3514" />
      <path
         d="m 3128.1052,-3833.9391 c 109.0695,274.8544 290.1243,357.7471 290.1243,357.7471"
         style="fill:none;stroke:#000000"
         id="path3516" />
      <path
         d="m 10363.758,-2994.1061 c 296.668,-174.5107 471.76,-459.2614 455.909,-676.2291"
         style="fill:none;stroke:#000000"
         id="path3518" />
      <path
         d="m 8511.45,-3635.2551 1141.1413,-942.677 -1125.8073,-946.8053"
         style="fill:none;stroke:#000000"
         id="path3520" />
    </g>
  </g>
</svg>
